<svg width="551" height="448" viewBox="0 0 551 448" fill="none" xmlns="http://www.w3.org/2000/svg">
<path d="M177.715 143L316.549 281.834L126.898 332.651L177.715 143Z" fill="#488BFF" fill-opacity="0.44"/>
<path d="M126.215 332.834L126.898 332.651M126.898 332.651L316.549 281.834L177.715 143L126.898 332.651Z" stroke="black"/>
<path d="M177.215 282H396.215" stroke="black" stroke-width="7" stroke-linecap="round"/>
<path d="M177.215 282L67.2146 390" stroke="black" stroke-width="7" stroke-linecap="round"/>
<path d="M177.215 282L177.215 57" stroke="black" stroke-width="7" stroke-linecap="round"/>
<path d="M177.215 143L316.515 282.3" stroke="black" stroke-width="5" stroke-linecap="round"/>
<path d="M126.215 332.987L316.502 282" stroke="black" stroke-width="5" stroke-linecap="round"/>
<path d="M126.215 333.287L177.202 143" stroke="black" stroke-width="5" stroke-linecap="round"/>
<ellipse cx="213.558" cy="250.668" rx="10" ry="13.5" transform="rotate(-43.7242 213.558 250.668)" fill="#FF8484"/>
<ellipse cx="186.655" cy="298.649" rx="8.3972" ry="13.5" transform="rotate(-112.24 186.655 298.649)" fill="#488BFF"/>
<path d="M324.215 143L214.215 251" stroke="#FF0000" stroke-width="7" stroke-linecap="round"/>
<path d="M187.5 299.5C187.5 299.5 186.076 328.153 197.5 339.5C206.532 348.47 215.495 348.62 228 351" stroke="black" stroke-width="5" stroke-linecap="round" stroke-dasharray="10 10"/>
<path d="M317.042 170.289C317.042 170.289 331.413 187.313 347.5 188C360.218 188.543 370.825 187.722 381.668 181.055" stroke="black" stroke-width="5" stroke-linecap="round" stroke-dasharray="10 10"/>
<path d="M408.215 280.268C409.548 281.038 409.548 282.962 408.215 283.732L391.715 293.258C390.381 294.028 388.715 293.066 388.715 291.526L388.715 272.474C388.715 270.934 390.381 269.972 391.715 270.742L408.215 280.268Z" fill="black"/>
<path d="M248 349.268C249.333 350.038 249.333 351.962 248 352.732L231.5 362.258C230.167 363.028 228.5 362.066 228.5 360.526L228.5 341.474C228.5 339.934 230.167 338.972 231.5 339.742L248 349.268Z" fill="black"/>
<path d="M395.28 166.299C396.784 165.969 398.08 167.391 397.614 168.859L391.84 187.015C391.374 188.482 389.494 188.894 388.457 187.757L375.619 173.679C374.582 172.541 375.165 170.707 376.669 170.377L395.28 166.299Z" fill="black"/>
<path d="M188.964 55.9904C189.733 57.3237 188.771 58.9904 187.231 58.9904L168.179 58.9904C166.639 58.9904 165.677 57.3237 166.447 55.9904L175.973 39.4904C176.743 38.157 178.667 38.157 179.437 39.4904L188.964 55.9904Z" fill="black"/>
<path d="M332.529 150.274C332.075 151.745 330.199 152.172 329.152 151.044L316.196 137.074C315.149 135.945 315.717 134.106 317.218 133.764L335.794 129.529C337.295 129.187 338.604 130.598 338.15 132.069L332.529 150.274Z" fill="#FF0000"/>
<path d="M74.7191 396.009C75.879 397.022 75.5081 398.91 74.0513 399.408L56.0245 405.575C54.5677 406.074 53.1178 404.808 53.4146 403.297L57.0873 384.602C57.3841 383.091 59.205 382.469 60.3649 383.481L74.7191 396.009Z" fill="black"/>
<path d="M29.6067 421.455L32.54 426.412H32.6536L35.601 421.455H39.074L34.6351 428.727L39.1735 436H35.6365L32.6536 431.036H32.54L29.557 436H26.0343L30.5868 428.727L26.1195 421.455H29.6067ZM47.263 421.455V436H44.1877V424.374H44.1025L40.7715 426.462V423.734L44.3723 421.455H47.263Z" fill="black"/>
<path d="M431.2 274.455L434.134 279.412H434.247L437.195 274.455H440.668L436.229 281.727L440.767 289H437.23L434.247 284.036H434.134L431.151 289H427.628L432.181 281.727L427.713 274.455H431.2ZM442.529 289V286.784L447.706 281.99C448.146 281.564 448.516 281.18 448.814 280.839C449.117 280.499 449.347 280.165 449.503 279.838C449.659 279.507 449.737 279.149 449.737 278.766C449.737 278.339 449.64 277.973 449.446 277.665C449.252 277.352 448.987 277.113 448.651 276.947C448.315 276.777 447.933 276.692 447.507 276.692C447.062 276.692 446.674 276.782 446.343 276.962C446.011 277.142 445.755 277.4 445.575 277.736C445.396 278.072 445.306 278.472 445.306 278.936H442.387C442.387 277.984 442.602 277.158 443.033 276.457C443.464 275.757 444.067 275.214 444.844 274.831C445.62 274.447 446.515 274.256 447.529 274.256C448.57 274.256 449.477 274.44 450.249 274.81C451.025 275.174 451.629 275.681 452.06 276.33C452.491 276.978 452.706 277.722 452.706 278.56C452.706 279.109 452.597 279.651 452.379 280.186C452.166 280.721 451.785 281.315 451.236 281.969C450.687 282.617 449.913 283.396 448.914 284.305L446.79 286.386V286.486H452.898V289H442.529Z" fill="black"/>
<path d="M303.458 335.091C303.373 334.371 303.027 333.812 302.421 333.415C301.815 333.017 301.072 332.818 300.191 332.818C299.547 332.818 298.984 332.922 298.501 333.131C298.022 333.339 297.648 333.625 297.379 333.99C297.113 334.355 296.981 334.769 296.981 335.233C296.981 335.621 297.073 335.955 297.258 336.234C297.447 336.509 297.689 336.739 297.982 336.923C298.276 337.103 298.584 337.252 298.906 337.371C299.228 337.484 299.523 337.577 299.793 337.648L301.271 338.045C301.649 338.145 302.071 338.282 302.535 338.457C303.004 338.633 303.451 338.872 303.877 339.175C304.308 339.473 304.663 339.857 304.942 340.325C305.222 340.794 305.362 341.369 305.362 342.051C305.362 342.837 305.156 343.547 304.744 344.182C304.336 344.816 303.74 345.321 302.954 345.695C302.173 346.069 301.223 346.256 300.106 346.256C299.064 346.256 298.162 346.088 297.4 345.751C296.642 345.415 296.046 344.946 295.61 344.345C295.179 343.744 294.935 343.045 294.879 342.25H296.697C296.744 342.799 296.929 343.254 297.251 343.614C297.577 343.969 297.989 344.234 298.487 344.409C298.988 344.58 299.528 344.665 300.106 344.665C300.778 344.665 301.382 344.556 301.917 344.338C302.452 344.116 302.876 343.808 303.188 343.415C303.501 343.017 303.657 342.553 303.657 342.023C303.657 341.54 303.522 341.147 303.252 340.844C302.982 340.541 302.627 340.295 302.187 340.105C301.746 339.916 301.271 339.75 300.759 339.608L298.969 339.097C297.833 338.77 296.933 338.304 296.271 337.697C295.608 337.091 295.276 336.298 295.276 335.318C295.276 334.504 295.496 333.794 295.937 333.188C296.382 332.577 296.978 332.103 297.727 331.767C298.479 331.426 299.32 331.256 300.248 331.256C301.185 331.256 302.019 331.424 302.748 331.76C303.477 332.091 304.055 332.546 304.481 333.124C304.912 333.701 305.139 334.357 305.163 335.091H303.458ZM314.905 341.54V335.091H316.581V346H314.905V344.153H314.792C314.536 344.707 314.138 345.179 313.598 345.567C313.059 345.95 312.377 346.142 311.553 346.142C310.871 346.142 310.265 345.993 309.735 345.695C309.204 345.392 308.788 344.937 308.485 344.331C308.182 343.72 308.03 342.951 308.03 342.023V335.091H309.706V341.909C309.706 342.705 309.929 343.339 310.374 343.812C310.824 344.286 311.397 344.523 312.093 344.523C312.509 344.523 312.933 344.416 313.364 344.203C313.8 343.99 314.164 343.663 314.458 343.223C314.756 342.783 314.905 342.222 314.905 341.54ZM319.879 346V331.455H321.555V336.824H321.697C321.82 336.634 321.99 336.393 322.208 336.099C322.431 335.801 322.748 335.536 323.16 335.304C323.576 335.067 324.14 334.949 324.85 334.949C325.769 334.949 326.578 335.179 327.279 335.638C327.98 336.097 328.527 336.748 328.92 337.591C329.313 338.434 329.509 339.428 329.509 340.574C329.509 341.729 329.313 342.731 328.92 343.578C328.527 344.421 327.982 345.074 327.286 345.538C326.59 345.998 325.788 346.227 324.879 346.227C324.178 346.227 323.617 346.111 323.195 345.879C322.774 345.643 322.45 345.375 322.222 345.077C321.995 344.774 321.82 344.523 321.697 344.324H321.498V346H319.879ZM321.526 340.545C321.526 341.369 321.647 342.096 321.888 342.726C322.13 343.351 322.483 343.841 322.947 344.196C323.411 344.546 323.979 344.722 324.651 344.722C325.352 344.722 325.937 344.537 326.406 344.168C326.879 343.794 327.234 343.292 327.471 342.662C327.712 342.027 327.833 341.322 327.833 340.545C327.833 339.778 327.715 339.087 327.478 338.472C327.246 337.851 326.893 337.361 326.42 337.001C325.951 336.637 325.362 336.455 324.651 336.455C323.969 336.455 323.397 336.627 322.933 336.973C322.469 337.314 322.118 337.792 321.881 338.408C321.645 339.018 321.526 339.731 321.526 340.545ZM339.8 337.534L338.295 337.96C338.2 337.709 338.06 337.465 337.876 337.229C337.696 336.987 337.45 336.788 337.137 336.632C336.825 336.476 336.424 336.398 335.937 336.398C335.269 336.398 334.713 336.552 334.268 336.859C333.827 337.162 333.607 337.548 333.607 338.017C333.607 338.434 333.759 338.763 334.062 339.004C334.365 339.246 334.838 339.447 335.482 339.608L337.102 340.006C338.077 340.242 338.804 340.605 339.282 341.092C339.76 341.575 339.999 342.198 339.999 342.96C339.999 343.585 339.819 344.144 339.46 344.636C339.104 345.129 338.607 345.517 337.968 345.801C337.329 346.085 336.585 346.227 335.738 346.227C334.625 346.227 333.704 345.986 332.975 345.503C332.246 345.02 331.784 344.314 331.59 343.386L333.181 342.989C333.333 343.576 333.619 344.016 334.04 344.31C334.467 344.603 335.023 344.75 335.71 344.75C336.491 344.75 337.111 344.584 337.57 344.253C338.034 343.917 338.266 343.514 338.266 343.045C338.266 342.667 338.134 342.349 337.869 342.094C337.603 341.833 337.196 341.639 336.647 341.511L334.829 341.085C333.83 340.848 333.096 340.482 332.627 339.984C332.163 339.482 331.931 338.855 331.931 338.102C331.931 337.487 332.104 336.942 332.45 336.469C332.8 335.995 333.276 335.624 333.877 335.354C334.483 335.084 335.17 334.949 335.937 334.949C337.016 334.949 337.864 335.186 338.479 335.659C339.1 336.133 339.54 336.758 339.8 337.534ZM342.522 350.091V335.091H344.142V336.824H344.341C344.464 336.634 344.634 336.393 344.852 336.099C345.074 335.801 345.392 335.536 345.804 335.304C346.22 335.067 346.784 334.949 347.494 334.949C348.413 334.949 349.222 335.179 349.923 335.638C350.624 336.097 351.171 336.748 351.564 337.591C351.957 338.434 352.153 339.428 352.153 340.574C352.153 341.729 351.957 342.731 351.564 343.578C351.171 344.421 350.626 345.074 349.93 345.538C349.234 345.998 348.431 346.227 347.522 346.227C346.822 346.227 346.261 346.111 345.839 345.879C345.418 345.643 345.093 345.375 344.866 345.077C344.639 344.774 344.464 344.523 344.341 344.324H344.199V350.091H342.522ZM344.17 340.545C344.17 341.369 344.291 342.096 344.532 342.726C344.774 343.351 345.127 343.841 345.591 344.196C346.055 344.546 346.623 344.722 347.295 344.722C347.996 344.722 348.581 344.537 349.049 344.168C349.523 343.794 349.878 343.292 350.115 342.662C350.356 342.027 350.477 341.322 350.477 340.545C350.477 339.778 350.359 339.087 350.122 338.472C349.89 337.851 349.537 337.361 349.064 337.001C348.595 336.637 348.005 336.455 347.295 336.455C346.613 336.455 346.04 336.627 345.576 336.973C345.112 337.314 344.762 337.792 344.525 338.408C344.288 339.018 344.17 339.731 344.17 340.545ZM357.92 346.256C357.229 346.256 356.601 346.125 356.038 345.865C355.475 345.6 355.027 345.219 354.696 344.722C354.364 344.22 354.199 343.614 354.199 342.903C354.199 342.278 354.322 341.772 354.568 341.384C354.814 340.991 355.143 340.683 355.555 340.46C355.967 340.238 356.422 340.072 356.919 339.963C357.421 339.849 357.925 339.759 358.431 339.693C359.094 339.608 359.632 339.544 360.044 339.501C360.46 339.454 360.763 339.376 360.953 339.267C361.147 339.158 361.244 338.969 361.244 338.699V338.642C361.244 337.941 361.052 337.397 360.669 337.009C360.29 336.62 359.715 336.426 358.943 336.426C358.143 336.426 357.515 336.601 357.061 336.952C356.606 337.302 356.287 337.676 356.102 338.074L354.511 337.506C354.795 336.843 355.174 336.327 355.647 335.957C356.126 335.583 356.646 335.323 357.21 335.176C357.778 335.025 358.337 334.949 358.886 334.949C359.236 334.949 359.639 334.991 360.093 335.077C360.553 335.157 360.995 335.325 361.422 335.581C361.852 335.837 362.21 336.223 362.494 336.739C362.778 337.255 362.92 337.946 362.92 338.812V346H361.244V344.523H361.159C361.045 344.759 360.856 345.013 360.591 345.283C360.325 345.553 359.973 345.782 359.532 345.972C359.092 346.161 358.555 346.256 357.92 346.256ZM358.176 344.75C358.839 344.75 359.397 344.62 359.852 344.359C360.311 344.099 360.657 343.763 360.889 343.351C361.126 342.939 361.244 342.506 361.244 342.051V340.517C361.173 340.602 361.017 340.68 360.775 340.751C360.538 340.818 360.264 340.877 359.951 340.929C359.644 340.976 359.343 341.019 359.049 341.057C358.761 341.09 358.526 341.118 358.346 341.142C357.911 341.199 357.503 341.291 357.125 341.419C356.751 341.542 356.448 341.729 356.216 341.98C355.988 342.226 355.875 342.562 355.875 342.989C355.875 343.571 356.09 344.011 356.521 344.31C356.957 344.603 357.508 344.75 358.176 344.75ZM370.411 346.227C369.388 346.227 368.508 345.986 367.769 345.503C367.031 345.02 366.462 344.355 366.065 343.507C365.667 342.66 365.468 341.691 365.468 340.602C365.468 339.494 365.672 338.517 366.079 337.669C366.491 336.817 367.064 336.152 367.798 335.673C368.536 335.19 369.398 334.949 370.383 334.949C371.15 334.949 371.841 335.091 372.457 335.375C373.072 335.659 373.576 336.057 373.969 336.568C374.362 337.08 374.606 337.676 374.701 338.358H373.025C372.897 337.861 372.613 337.42 372.173 337.037C371.737 336.649 371.15 336.455 370.411 336.455C369.758 336.455 369.185 336.625 368.692 336.966C368.205 337.302 367.824 337.778 367.549 338.393C367.279 339.004 367.144 339.722 367.144 340.545C367.144 341.388 367.277 342.122 367.542 342.747C367.812 343.372 368.191 343.857 368.678 344.203C369.171 344.549 369.748 344.722 370.411 344.722C370.847 344.722 371.242 344.646 371.597 344.494C371.952 344.343 372.253 344.125 372.499 343.841C372.746 343.557 372.921 343.216 373.025 342.818H374.701C374.606 343.462 374.372 344.042 373.998 344.558C373.629 345.07 373.138 345.477 372.528 345.78C371.922 346.078 371.216 346.227 370.411 346.227ZM381.725 346.227C380.674 346.227 379.767 345.995 379.005 345.531C378.247 345.062 377.663 344.409 377.251 343.571C376.844 342.728 376.64 341.748 376.64 340.631C376.64 339.513 376.844 338.528 377.251 337.676C377.663 336.819 378.236 336.152 378.969 335.673C379.708 335.19 380.57 334.949 381.555 334.949C382.123 334.949 382.684 335.044 383.238 335.233C383.792 335.422 384.296 335.73 384.751 336.156C385.205 336.578 385.567 337.136 385.837 337.832C386.107 338.528 386.242 339.385 386.242 340.403V341.114H377.833V339.665H384.538C384.538 339.049 384.415 338.5 384.168 338.017C383.927 337.534 383.581 337.153 383.131 336.874C382.686 336.594 382.161 336.455 381.555 336.455C380.887 336.455 380.309 336.62 379.822 336.952C379.339 337.278 378.967 337.705 378.707 338.23C378.446 338.756 378.316 339.319 378.316 339.92V340.886C378.316 341.71 378.458 342.409 378.742 342.982C379.031 343.55 379.431 343.983 379.942 344.281C380.454 344.575 381.048 344.722 381.725 344.722C382.165 344.722 382.563 344.66 382.918 344.537C383.278 344.409 383.588 344.22 383.849 343.969C384.109 343.713 384.31 343.396 384.452 343.017L386.072 343.472C385.901 344.021 385.615 344.504 385.212 344.92C384.81 345.332 384.313 345.654 383.721 345.886C383.129 346.114 382.464 346.227 381.725 346.227ZM266.564 370.227C265.541 370.227 264.66 369.986 263.922 369.503C263.183 369.02 262.615 368.355 262.217 367.507C261.819 366.66 261.62 365.691 261.62 364.602C261.62 363.494 261.824 362.517 262.231 361.669C262.643 360.817 263.216 360.152 263.95 359.673C264.689 359.19 265.55 358.949 266.535 358.949C267.302 358.949 267.993 359.091 268.609 359.375C269.225 359.659 269.729 360.057 270.122 360.568C270.515 361.08 270.759 361.676 270.853 362.358H269.177C269.049 361.861 268.765 361.42 268.325 361.037C267.889 360.649 267.302 360.455 266.564 360.455C265.91 360.455 265.337 360.625 264.845 360.966C264.357 361.302 263.976 361.778 263.701 362.393C263.431 363.004 263.297 363.722 263.297 364.545C263.297 365.388 263.429 366.122 263.694 366.747C263.964 367.372 264.343 367.857 264.831 368.203C265.323 368.549 265.901 368.722 266.564 368.722C266.999 368.722 267.395 368.646 267.75 368.494C268.105 368.343 268.405 368.125 268.652 367.841C268.898 367.557 269.073 367.216 269.177 366.818H270.853C270.759 367.462 270.524 368.042 270.15 368.558C269.781 369.07 269.291 369.477 268.68 369.78C268.074 370.078 267.368 370.227 266.564 370.227ZM277.735 370.227C276.751 370.227 275.886 369.993 275.143 369.524C274.404 369.055 273.827 368.4 273.41 367.557C272.998 366.714 272.792 365.729 272.792 364.602C272.792 363.466 272.998 362.474 273.41 361.626C273.827 360.779 274.404 360.121 275.143 359.652C275.886 359.183 276.751 358.949 277.735 358.949C278.72 358.949 279.582 359.183 280.321 359.652C281.064 360.121 281.642 360.779 282.054 361.626C282.47 362.474 282.679 363.466 282.679 364.602C282.679 365.729 282.47 366.714 282.054 367.557C281.642 368.4 281.064 369.055 280.321 369.524C279.582 369.993 278.72 370.227 277.735 370.227ZM277.735 368.722C278.484 368.722 279.099 368.53 279.582 368.146C280.065 367.763 280.422 367.259 280.654 366.634C280.886 366.009 281.002 365.331 281.002 364.602C281.002 363.873 280.886 363.194 280.654 362.564C280.422 361.934 280.065 361.425 279.582 361.037C279.099 360.649 278.484 360.455 277.735 360.455C276.987 360.455 276.372 360.649 275.889 361.037C275.406 361.425 275.048 361.934 274.816 362.564C274.584 363.194 274.468 363.873 274.468 364.602C274.468 365.331 274.584 366.009 274.816 366.634C275.048 367.259 275.406 367.763 275.889 368.146C276.372 368.53 276.987 368.722 277.735 368.722ZM285.237 370V359.091H286.857V360.739H286.97C287.169 360.199 287.529 359.761 288.05 359.425C288.571 359.089 289.158 358.92 289.811 358.92C289.934 358.92 290.088 358.923 290.273 358.928C290.457 358.932 290.597 358.939 290.692 358.949V360.653C290.635 360.639 290.505 360.618 290.301 360.589C290.102 360.556 289.892 360.54 289.669 360.54C289.139 360.54 288.665 360.651 288.249 360.874C287.837 361.091 287.51 361.394 287.268 361.783C287.032 362.166 286.913 362.604 286.913 363.097V370H285.237ZM292.679 370V359.091H294.298V360.739H294.412C294.61 360.199 294.97 359.761 295.491 359.425C296.012 359.089 296.599 358.92 297.252 358.92C297.376 358.92 297.529 358.923 297.714 358.928C297.899 358.932 298.038 358.939 298.133 358.949V360.653C298.076 360.639 297.946 360.618 297.743 360.589C297.544 360.556 297.333 360.54 297.11 360.54C296.58 360.54 296.107 360.651 295.69 360.874C295.278 361.091 294.951 361.394 294.71 361.783C294.473 362.166 294.355 362.604 294.355 363.097V370H292.679ZM304.362 370.227C303.311 370.227 302.404 369.995 301.642 369.531C300.884 369.062 300.299 368.409 299.887 367.571C299.48 366.728 299.277 365.748 299.277 364.631C299.277 363.513 299.48 362.528 299.887 361.676C300.299 360.819 300.872 360.152 301.606 359.673C302.345 359.19 303.207 358.949 304.191 358.949C304.76 358.949 305.321 359.044 305.875 359.233C306.429 359.422 306.933 359.73 307.387 360.156C307.842 360.578 308.204 361.136 308.474 361.832C308.744 362.528 308.879 363.385 308.879 364.403V365.114H300.47V363.665H307.174C307.174 363.049 307.051 362.5 306.805 362.017C306.564 361.534 306.218 361.153 305.768 360.874C305.323 360.594 304.797 360.455 304.191 360.455C303.524 360.455 302.946 360.62 302.458 360.952C301.975 361.278 301.604 361.705 301.343 362.23C301.083 362.756 300.953 363.319 300.953 363.92V364.886C300.953 365.71 301.095 366.409 301.379 366.982C301.668 367.55 302.068 367.983 302.579 368.281C303.091 368.575 303.685 368.722 304.362 368.722C304.802 368.722 305.2 368.66 305.555 368.537C305.915 368.409 306.225 368.22 306.485 367.969C306.746 367.713 306.947 367.396 307.089 367.017L308.708 367.472C308.538 368.021 308.252 368.504 307.849 368.92C307.447 369.332 306.949 369.654 306.358 369.886C305.766 370.114 305.1 370.227 304.362 370.227ZM313.105 355.455V370H311.429V355.455H313.105ZM319.385 370.256C318.694 370.256 318.066 370.125 317.503 369.865C316.939 369.6 316.492 369.219 316.161 368.722C315.829 368.22 315.663 367.614 315.663 366.903C315.663 366.278 315.786 365.772 316.033 365.384C316.279 364.991 316.608 364.683 317.02 364.46C317.432 364.238 317.886 364.072 318.384 363.963C318.885 363.849 319.39 363.759 319.896 363.693C320.559 363.608 321.097 363.544 321.509 363.501C321.925 363.454 322.228 363.376 322.418 363.267C322.612 363.158 322.709 362.969 322.709 362.699V362.642C322.709 361.941 322.517 361.397 322.134 361.009C321.755 360.62 321.179 360.426 320.408 360.426C319.607 360.426 318.98 360.601 318.526 360.952C318.071 361.302 317.751 361.676 317.567 362.074L315.976 361.506C316.26 360.843 316.639 360.327 317.112 359.957C317.59 359.583 318.111 359.323 318.675 359.176C319.243 359.025 319.802 358.949 320.351 358.949C320.701 358.949 321.104 358.991 321.558 359.077C322.018 359.157 322.46 359.325 322.886 359.581C323.317 359.837 323.675 360.223 323.959 360.739C324.243 361.255 324.385 361.946 324.385 362.812V370H322.709V368.523H322.624C322.51 368.759 322.321 369.013 322.055 369.283C321.79 369.553 321.438 369.782 320.997 369.972C320.557 370.161 320.019 370.256 319.385 370.256ZM319.641 368.75C320.304 368.75 320.862 368.62 321.317 368.359C321.776 368.099 322.122 367.763 322.354 367.351C322.59 366.939 322.709 366.506 322.709 366.051V364.517C322.638 364.602 322.482 364.68 322.24 364.751C322.003 364.818 321.729 364.877 321.416 364.929C321.108 364.976 320.808 365.019 320.514 365.057C320.225 365.09 319.991 365.118 319.811 365.142C319.375 365.199 318.968 365.291 318.589 365.419C318.215 365.542 317.912 365.729 317.68 365.98C317.453 366.226 317.339 366.562 317.339 366.989C317.339 367.571 317.555 368.011 317.986 368.31C318.421 368.603 318.973 368.75 319.641 368.75ZM332.189 359.091V360.511H326.535V359.091H332.189ZM328.183 356.477H329.859V366.875C329.859 367.348 329.928 367.704 330.065 367.94C330.207 368.172 330.387 368.329 330.605 368.409C330.827 368.485 331.062 368.523 331.308 368.523C331.493 368.523 331.644 368.513 331.762 368.494C331.881 368.471 331.975 368.452 332.047 368.438L332.387 369.943C332.274 369.986 332.115 370.028 331.912 370.071C331.708 370.118 331.45 370.142 331.137 370.142C330.664 370.142 330.2 370.04 329.745 369.837C329.296 369.633 328.922 369.323 328.623 368.906C328.33 368.49 328.183 367.964 328.183 367.33V356.477ZM339.167 370.227C338.115 370.227 337.209 369.995 336.446 369.531C335.689 369.062 335.104 368.409 334.692 367.571C334.285 366.728 334.081 365.748 334.081 364.631C334.081 363.513 334.285 362.528 334.692 361.676C335.104 360.819 335.677 360.152 336.411 359.673C337.15 359.19 338.011 358.949 338.996 358.949C339.564 358.949 340.125 359.044 340.679 359.233C341.233 359.422 341.738 359.73 342.192 360.156C342.647 360.578 343.009 361.136 343.279 361.832C343.549 362.528 343.684 363.385 343.684 364.403V365.114H335.275V363.665H341.979C341.979 363.049 341.856 362.5 341.61 362.017C341.368 361.534 341.023 361.153 340.573 360.874C340.128 360.594 339.602 360.455 338.996 360.455C338.328 360.455 337.751 360.62 337.263 360.952C336.78 361.278 336.408 361.705 336.148 362.23C335.888 362.756 335.757 363.319 335.757 363.92V364.886C335.757 365.71 335.9 366.409 336.184 366.982C336.472 367.55 336.873 367.983 337.384 368.281C337.895 368.575 338.489 368.722 339.167 368.722C339.607 368.722 340.005 368.66 340.36 368.537C340.72 368.409 341.03 368.22 341.29 367.969C341.551 367.713 341.752 367.396 341.894 367.017L343.513 367.472C343.343 368.021 343.056 368.504 342.654 368.92C342.251 369.332 341.754 369.654 341.162 369.886C340.57 370.114 339.905 370.227 339.167 370.227ZM350.353 370.227C349.444 370.227 348.641 369.998 347.945 369.538C347.249 369.074 346.704 368.421 346.311 367.578C345.918 366.731 345.722 365.729 345.722 364.574C345.722 363.428 345.918 362.434 346.311 361.591C346.704 360.748 347.251 360.097 347.952 359.638C348.653 359.179 349.462 358.949 350.381 358.949C351.091 358.949 351.652 359.067 352.064 359.304C352.481 359.536 352.798 359.801 353.016 360.099C353.239 360.393 353.411 360.634 353.534 360.824H353.676V355.455H355.353V370H353.733V368.324H353.534C353.411 368.523 353.236 368.774 353.009 369.077C352.782 369.375 352.457 369.643 352.036 369.879C351.614 370.111 351.053 370.227 350.353 370.227ZM350.58 368.722C351.252 368.722 351.82 368.546 352.284 368.196C352.748 367.841 353.101 367.351 353.343 366.726C353.584 366.096 353.705 365.369 353.705 364.545C353.705 363.731 353.587 363.018 353.35 362.408C353.113 361.792 352.763 361.314 352.299 360.973C351.835 360.627 351.262 360.455 350.58 360.455C349.87 360.455 349.278 360.637 348.804 361.001C348.336 361.361 347.983 361.851 347.746 362.472C347.514 363.087 347.398 363.778 347.398 364.545C347.398 365.322 347.516 366.027 347.753 366.662C347.995 367.292 348.35 367.794 348.819 368.168C349.292 368.537 349.879 368.722 350.58 368.722ZM366.752 370L363.428 359.091H365.189L367.547 367.443H367.661L369.99 359.091H371.78L374.081 367.415H374.195L376.553 359.091H378.314L374.99 370H373.343L370.956 361.619H370.786L368.4 370H366.752ZM380.53 370V359.091H382.206V370H380.53ZM381.382 357.273C381.056 357.273 380.774 357.161 380.537 356.939C380.305 356.716 380.189 356.449 380.189 356.136C380.189 355.824 380.305 355.556 380.537 355.334C380.774 355.111 381.056 355 381.382 355C381.709 355 381.989 355.111 382.221 355.334C382.457 355.556 382.576 355.824 382.576 356.136C382.576 356.449 382.457 356.716 382.221 356.939C381.989 357.161 381.709 357.273 381.382 357.273ZM390.021 359.091V360.511H384.367V359.091H390.021ZM386.015 356.477H387.691V366.875C387.691 367.348 387.76 367.704 387.897 367.94C388.039 368.172 388.219 368.329 388.437 368.409C388.659 368.485 388.894 368.523 389.14 368.523C389.325 368.523 389.476 368.513 389.594 368.494C389.713 368.471 389.808 368.452 389.879 368.438L390.219 369.943C390.106 369.986 389.947 370.028 389.744 370.071C389.54 370.118 389.282 370.142 388.969 370.142C388.496 370.142 388.032 370.04 387.577 369.837C387.128 369.633 386.754 369.323 386.455 368.906C386.162 368.49 386.015 367.964 386.015 367.33V356.477ZM394.452 363.438V370H392.776V355.455H394.452V360.795H394.594C394.85 360.232 395.234 359.785 395.745 359.453C396.261 359.117 396.948 358.949 397.805 358.949C398.548 358.949 399.199 359.098 399.758 359.396C400.317 359.69 400.75 360.142 401.058 360.753C401.37 361.359 401.526 362.131 401.526 363.068V370H399.85V363.182C399.85 362.315 399.625 361.645 399.175 361.172C398.73 360.694 398.112 360.455 397.322 360.455C396.772 360.455 396.28 360.571 395.844 360.803C395.414 361.035 395.073 361.373 394.822 361.818C394.576 362.263 394.452 362.803 394.452 363.438ZM411.759 374.091C411.375 374.091 411.016 374.06 410.679 373.999C410.348 373.942 410.073 373.868 409.855 373.778L410.537 371.52C410.892 371.629 411.212 371.688 411.496 371.697C411.785 371.707 412.033 371.641 412.242 371.499C412.455 371.357 412.628 371.115 412.76 370.774L412.938 370.312L409.025 359.091H412.206L414.465 367.102H414.578L416.858 359.091H420.061L415.821 371.179C415.618 371.766 415.341 372.277 414.99 372.713C414.645 373.153 414.207 373.492 413.676 373.729C413.146 373.97 412.507 374.091 411.759 374.091Z" fill="#488BFF"/>
<path d="M422.406 129H417.918V114.455H422.605C424.016 114.455 425.223 114.746 426.227 115.328C427.231 115.906 428 116.737 428.536 117.821C429.071 118.901 429.338 120.193 429.338 121.699C429.338 123.214 429.068 124.518 428.528 125.612C427.989 126.701 427.203 127.539 426.17 128.126C425.138 128.709 423.884 129 422.406 129ZM419.679 127.438H422.293C423.495 127.438 424.492 127.205 425.283 126.741C426.073 126.277 426.663 125.617 427.051 124.76C427.439 123.903 427.634 122.883 427.634 121.699C427.634 120.525 427.442 119.514 427.058 118.666C426.675 117.814 426.102 117.161 425.339 116.706C424.577 116.247 423.628 116.017 422.491 116.017H419.679V127.438ZM432.065 129V118.091H433.741V129H432.065ZM432.918 116.273C432.591 116.273 432.309 116.161 432.072 115.939C431.84 115.716 431.724 115.449 431.724 115.136C431.724 114.824 431.84 114.556 432.072 114.334C432.309 114.111 432.591 114 432.918 114C433.244 114 433.524 114.111 433.756 114.334C433.992 114.556 434.111 114.824 434.111 115.136C434.111 115.449 433.992 115.716 433.756 115.939C433.524 116.161 433.244 116.273 432.918 116.273ZM436.811 129V118.091H438.431V119.739H438.544C438.743 119.199 439.103 118.761 439.624 118.425C440.145 118.089 440.732 117.92 441.385 117.92C441.508 117.92 441.662 117.923 441.847 117.928C442.032 117.932 442.171 117.939 442.266 117.949V119.653C442.209 119.639 442.079 119.618 441.875 119.589C441.676 119.556 441.466 119.54 441.243 119.54C440.713 119.54 440.239 119.651 439.823 119.874C439.411 120.091 439.084 120.394 438.843 120.783C438.606 121.166 438.488 121.604 438.488 122.097V129H436.811ZM448.495 129.227C447.444 129.227 446.537 128.995 445.775 128.531C445.017 128.062 444.432 127.409 444.02 126.571C443.613 125.728 443.409 124.748 443.409 123.631C443.409 122.513 443.613 121.528 444.02 120.676C444.432 119.819 445.005 119.152 445.739 118.673C446.478 118.19 447.339 117.949 448.324 117.949C448.892 117.949 449.453 118.044 450.007 118.233C450.561 118.422 451.066 118.73 451.52 119.156C451.975 119.578 452.337 120.136 452.607 120.832C452.877 121.528 453.012 122.385 453.012 123.403V124.114H444.603V122.665H451.307C451.307 122.049 451.184 121.5 450.938 121.017C450.696 120.534 450.351 120.153 449.901 119.874C449.456 119.594 448.93 119.455 448.324 119.455C447.657 119.455 447.079 119.62 446.591 119.952C446.108 120.278 445.737 120.705 445.476 121.23C445.216 121.756 445.086 122.319 445.086 122.92V123.886C445.086 124.71 445.228 125.409 445.512 125.982C445.801 126.55 446.201 126.983 446.712 127.281C447.223 127.575 447.818 127.722 448.495 127.722C448.935 127.722 449.333 127.66 449.688 127.537C450.048 127.409 450.358 127.22 450.618 126.969C450.879 126.713 451.08 126.396 451.222 126.017L452.841 126.472C452.671 127.021 452.384 127.504 451.982 127.92C451.579 128.332 451.082 128.654 450.49 128.886C449.899 129.114 449.233 129.227 448.495 129.227ZM459.993 129.227C458.971 129.227 458.09 128.986 457.351 128.503C456.613 128.02 456.044 127.355 455.647 126.507C455.249 125.66 455.05 124.691 455.05 123.602C455.05 122.494 455.254 121.517 455.661 120.669C456.073 119.817 456.646 119.152 457.38 118.673C458.118 118.19 458.98 117.949 459.965 117.949C460.732 117.949 461.423 118.091 462.039 118.375C462.654 118.659 463.158 119.057 463.551 119.568C463.944 120.08 464.188 120.676 464.283 121.358H462.607C462.479 120.861 462.195 120.42 461.755 120.037C461.319 119.649 460.732 119.455 459.993 119.455C459.34 119.455 458.767 119.625 458.275 119.966C457.787 120.302 457.406 120.778 457.131 121.393C456.861 122.004 456.726 122.722 456.726 123.545C456.726 124.388 456.859 125.122 457.124 125.747C457.394 126.372 457.773 126.857 458.26 127.203C458.753 127.549 459.33 127.722 459.993 127.722C460.429 127.722 460.824 127.646 461.179 127.494C461.534 127.343 461.835 127.125 462.081 126.841C462.328 126.557 462.503 126.216 462.607 125.818H464.283C464.188 126.462 463.954 127.042 463.58 127.558C463.211 128.07 462.721 128.477 462.11 128.78C461.504 129.078 460.798 129.227 459.993 129.227ZM471.478 118.091V119.511H465.824V118.091H471.478ZM467.472 115.477H469.148V125.875C469.148 126.348 469.217 126.704 469.354 126.94C469.496 127.172 469.676 127.329 469.894 127.409C470.116 127.485 470.351 127.523 470.597 127.523C470.782 127.523 470.933 127.513 471.051 127.494C471.17 127.471 471.265 127.452 471.336 127.438L471.676 128.943C471.563 128.986 471.404 129.028 471.201 129.071C470.997 129.118 470.739 129.142 470.426 129.142C469.953 129.142 469.489 129.04 469.034 128.837C468.585 128.633 468.211 128.323 467.912 127.906C467.619 127.49 467.472 126.964 467.472 126.33V115.477ZM473.999 129V118.091H475.675V129H473.999ZM474.851 116.273C474.525 116.273 474.243 116.161 474.006 115.939C473.774 115.716 473.658 115.449 473.658 115.136C473.658 114.824 473.774 114.556 474.006 114.334C474.243 114.111 474.525 114 474.851 114C475.178 114 475.457 114.111 475.689 114.334C475.926 114.556 476.044 114.824 476.044 115.136C476.044 115.449 475.926 115.716 475.689 115.939C475.457 116.161 475.178 116.273 474.851 116.273ZM483.177 129.227C482.192 129.227 481.328 128.993 480.585 128.524C479.846 128.055 479.268 127.4 478.852 126.557C478.44 125.714 478.234 124.729 478.234 123.602C478.234 122.466 478.44 121.474 478.852 120.626C479.268 119.779 479.846 119.121 480.585 118.652C481.328 118.183 482.192 117.949 483.177 117.949C484.162 117.949 485.023 118.183 485.762 118.652C486.505 119.121 487.083 119.779 487.495 120.626C487.912 121.474 488.12 122.466 488.12 123.602C488.12 124.729 487.912 125.714 487.495 126.557C487.083 127.4 486.505 128.055 485.762 128.524C485.023 128.993 484.162 129.227 483.177 129.227ZM483.177 127.722C483.925 127.722 484.54 127.53 485.023 127.146C485.506 126.763 485.864 126.259 486.096 125.634C486.328 125.009 486.444 124.331 486.444 123.602C486.444 122.873 486.328 122.194 486.096 121.564C485.864 120.934 485.506 120.425 485.023 120.037C484.54 119.649 483.925 119.455 483.177 119.455C482.429 119.455 481.813 119.649 481.33 120.037C480.847 120.425 480.49 120.934 480.258 121.564C480.026 122.194 479.91 122.873 479.91 123.602C479.91 124.331 480.026 125.009 480.258 125.634C480.49 126.259 480.847 126.763 481.33 127.146C481.813 127.53 482.429 127.722 483.177 127.722ZM492.355 122.438V129H490.679V118.091H492.298V119.795H492.44C492.696 119.241 493.084 118.796 493.605 118.46C494.126 118.119 494.798 117.949 495.622 117.949C496.36 117.949 497.007 118.1 497.561 118.403C498.115 118.702 498.546 119.156 498.853 119.767C499.161 120.373 499.315 121.14 499.315 122.068V129H497.639V122.182C497.639 121.325 497.416 120.657 496.971 120.179C496.526 119.696 495.915 119.455 495.139 119.455C494.604 119.455 494.126 119.571 493.704 119.803C493.288 120.035 492.958 120.373 492.717 120.818C492.475 121.263 492.355 121.803 492.355 122.438ZM391.868 153.227C390.883 153.227 390.019 152.993 389.276 152.524C388.537 152.055 387.96 151.4 387.543 150.557C387.131 149.714 386.925 148.729 386.925 147.602C386.925 146.466 387.131 145.474 387.543 144.626C387.96 143.779 388.537 143.121 389.276 142.652C390.019 142.183 390.883 141.949 391.868 141.949C392.853 141.949 393.715 142.183 394.453 142.652C395.197 143.121 395.775 143.779 396.186 144.626C396.603 145.474 396.811 146.466 396.811 147.602C396.811 148.729 396.603 149.714 396.186 150.557C395.775 151.4 395.197 152.055 394.453 152.524C393.715 152.993 392.853 153.227 391.868 153.227ZM391.868 151.722C392.616 151.722 393.232 151.53 393.715 151.146C394.198 150.763 394.555 150.259 394.787 149.634C395.019 149.009 395.135 148.331 395.135 147.602C395.135 146.873 395.019 146.194 394.787 145.564C394.555 144.934 394.198 144.425 393.715 144.037C393.232 143.649 392.616 143.455 391.868 143.455C391.12 143.455 390.505 143.649 390.022 144.037C389.539 144.425 389.181 144.934 388.949 145.564C388.717 146.194 388.601 146.873 388.601 147.602C388.601 148.331 388.717 149.009 388.949 149.634C389.181 150.259 389.539 150.763 390.022 151.146C390.505 151.53 391.12 151.722 391.868 151.722ZM399.37 153V142.091H400.989V143.739H401.103C401.302 143.199 401.662 142.761 402.183 142.425C402.703 142.089 403.29 141.92 403.944 141.92C404.067 141.92 404.221 141.923 404.406 141.928C404.59 141.932 404.73 141.939 404.825 141.949V143.653C404.768 143.639 404.638 143.618 404.434 143.589C404.235 143.556 404.024 143.54 403.802 143.54C403.272 143.54 402.798 143.651 402.381 143.874C401.969 144.091 401.643 144.394 401.401 144.783C401.165 145.166 401.046 145.604 401.046 146.097V153H399.37ZM412.239 142.091V143.511H406.586V142.091H412.239ZM408.234 139.477H409.91V149.875C409.91 150.348 409.978 150.704 410.116 150.94C410.258 151.172 410.438 151.329 410.656 151.409C410.878 151.485 411.112 151.523 411.359 151.523C411.543 151.523 411.695 151.513 411.813 151.494C411.932 151.471 412.026 151.452 412.097 151.438L412.438 152.943C412.325 152.986 412.166 153.028 411.962 153.071C411.759 153.118 411.501 153.142 411.188 153.142C410.715 153.142 410.251 153.04 409.796 152.837C409.346 152.633 408.972 152.323 408.674 151.906C408.38 151.49 408.234 150.964 408.234 150.33V139.477ZM416.671 146.438V153H414.995V138.455H416.671V143.795H416.813C417.069 143.232 417.452 142.785 417.964 142.453C418.48 142.117 419.166 141.949 420.023 141.949C420.767 141.949 421.418 142.098 421.977 142.396C422.535 142.69 422.969 143.142 423.276 143.753C423.589 144.359 423.745 145.131 423.745 146.068V153H422.069V146.182C422.069 145.315 421.844 144.645 421.394 144.172C420.949 143.694 420.331 143.455 419.54 143.455C418.991 143.455 418.499 143.571 418.063 143.803C417.632 144.035 417.291 144.373 417.04 144.818C416.794 145.263 416.671 145.803 416.671 146.438ZM431.243 153.227C430.258 153.227 429.394 152.993 428.651 152.524C427.912 152.055 427.335 151.4 426.918 150.557C426.506 149.714 426.3 148.729 426.3 147.602C426.3 146.466 426.506 145.474 426.918 144.626C427.335 143.779 427.912 143.121 428.651 142.652C429.394 142.183 430.258 141.949 431.243 141.949C432.228 141.949 433.09 142.183 433.828 142.652C434.572 143.121 435.15 143.779 435.561 144.626C435.978 145.474 436.186 146.466 436.186 147.602C436.186 148.729 435.978 149.714 435.561 150.557C435.15 151.4 434.572 152.055 433.828 152.524C433.09 152.993 432.228 153.227 431.243 153.227ZM431.243 151.722C431.991 151.722 432.607 151.53 433.09 151.146C433.573 150.763 433.93 150.259 434.162 149.634C434.394 149.009 434.51 148.331 434.51 147.602C434.51 146.873 434.394 146.194 434.162 145.564C433.93 144.934 433.573 144.425 433.09 144.037C432.607 143.649 431.991 143.455 431.243 143.455C430.495 143.455 429.88 143.649 429.397 144.037C428.914 144.425 428.556 144.934 428.324 145.564C428.092 146.194 427.976 146.873 427.976 147.602C427.976 148.331 428.092 149.009 428.324 149.634C428.556 150.259 428.914 150.763 429.397 151.146C429.88 151.53 430.495 151.722 431.243 151.722ZM443.148 157.318C442.339 157.318 441.643 157.214 441.06 157.006C440.478 156.802 439.993 156.532 439.604 156.196C439.221 155.865 438.915 155.509 438.688 155.131L440.023 154.193C440.175 154.392 440.367 154.619 440.599 154.875C440.831 155.135 441.148 155.36 441.55 155.55C441.958 155.744 442.49 155.841 443.148 155.841C444.029 155.841 444.756 155.628 445.329 155.202C445.902 154.776 446.188 154.108 446.188 153.199V150.983H446.046C445.923 151.182 445.748 151.428 445.521 151.722C445.298 152.01 444.976 152.268 444.555 152.496C444.138 152.718 443.575 152.83 442.864 152.83C441.984 152.83 441.193 152.621 440.492 152.205C439.796 151.788 439.245 151.182 438.837 150.386C438.435 149.591 438.234 148.625 438.234 147.489C438.234 146.371 438.43 145.398 438.823 144.57C439.216 143.736 439.763 143.092 440.464 142.638C441.165 142.179 441.974 141.949 442.893 141.949C443.603 141.949 444.166 142.067 444.583 142.304C445.004 142.536 445.326 142.801 445.549 143.099C445.776 143.393 445.951 143.634 446.075 143.824H446.245V142.091H447.864V153.312C447.864 154.25 447.651 155.012 447.225 155.599C446.804 156.191 446.236 156.625 445.521 156.899C444.81 157.179 444.02 157.318 443.148 157.318ZM443.092 151.324C443.764 151.324 444.332 151.17 444.796 150.862C445.26 150.554 445.613 150.112 445.854 149.534C446.096 148.956 446.217 148.265 446.217 147.46C446.217 146.674 446.098 145.981 445.862 145.379C445.625 144.778 445.274 144.307 444.81 143.966C444.346 143.625 443.773 143.455 443.092 143.455C442.381 143.455 441.79 143.634 441.316 143.994C440.847 144.354 440.495 144.837 440.258 145.443C440.026 146.049 439.91 146.722 439.91 147.46C439.91 148.218 440.028 148.888 440.265 149.47C440.506 150.048 440.862 150.502 441.33 150.834C441.804 151.161 442.391 151.324 443.092 151.324ZM455.364 153.227C454.379 153.227 453.515 152.993 452.772 152.524C452.033 152.055 451.456 151.4 451.039 150.557C450.627 149.714 450.421 148.729 450.421 147.602C450.421 146.466 450.627 145.474 451.039 144.626C451.456 143.779 452.033 143.121 452.772 142.652C453.515 142.183 454.379 141.949 455.364 141.949C456.349 141.949 457.211 142.183 457.95 142.652C458.693 143.121 459.271 143.779 459.683 144.626C460.099 145.474 460.308 146.466 460.308 147.602C460.308 148.729 460.099 149.714 459.683 150.557C459.271 151.4 458.693 152.055 457.95 152.524C457.211 152.993 456.349 153.227 455.364 153.227ZM455.364 151.722C456.112 151.722 456.728 151.53 457.211 151.146C457.694 150.763 458.051 150.259 458.283 149.634C458.515 149.009 458.631 148.331 458.631 147.602C458.631 146.873 458.515 146.194 458.283 145.564C458.051 144.934 457.694 144.425 457.211 144.037C456.728 143.649 456.112 143.455 455.364 143.455C454.616 143.455 454.001 143.649 453.518 144.037C453.035 144.425 452.677 144.934 452.445 145.564C452.213 146.194 452.097 146.873 452.097 147.602C452.097 148.331 452.213 149.009 452.445 149.634C452.677 150.259 453.035 150.763 453.518 151.146C454.001 151.53 454.616 151.722 455.364 151.722ZM464.542 146.438V153H462.866V142.091H464.485V143.795H464.627C464.883 143.241 465.271 142.796 465.792 142.46C466.313 142.119 466.985 141.949 467.809 141.949C468.548 141.949 469.194 142.1 469.748 142.403C470.302 142.702 470.733 143.156 471.041 143.767C471.349 144.373 471.502 145.14 471.502 146.068V153H469.826V146.182C469.826 145.325 469.604 144.657 469.159 144.179C468.714 143.696 468.103 143.455 467.326 143.455C466.791 143.455 466.313 143.571 465.892 143.803C465.475 144.035 465.146 144.373 464.904 144.818C464.663 145.263 464.542 145.803 464.542 146.438ZM477.776 153.256C477.084 153.256 476.457 153.125 475.893 152.865C475.33 152.6 474.883 152.219 474.551 151.722C474.22 151.22 474.054 150.614 474.054 149.903C474.054 149.278 474.177 148.772 474.423 148.384C474.67 147.991 474.999 147.683 475.411 147.46C475.822 147.238 476.277 147.072 476.774 146.963C477.276 146.849 477.78 146.759 478.287 146.693C478.95 146.608 479.487 146.544 479.899 146.501C480.316 146.454 480.619 146.376 480.808 146.267C481.002 146.158 481.099 145.969 481.099 145.699V145.642C481.099 144.941 480.908 144.397 480.524 144.009C480.145 143.62 479.57 143.426 478.798 143.426C477.998 143.426 477.371 143.601 476.916 143.952C476.462 144.302 476.142 144.676 475.957 145.074L474.366 144.506C474.651 143.843 475.029 143.327 475.503 142.957C475.981 142.583 476.502 142.323 477.065 142.176C477.634 142.025 478.192 141.949 478.741 141.949C479.092 141.949 479.494 141.991 479.949 142.077C480.408 142.157 480.851 142.325 481.277 142.581C481.708 142.837 482.065 143.223 482.349 143.739C482.634 144.255 482.776 144.946 482.776 145.812V153H481.099V151.523H481.014C480.901 151.759 480.711 152.013 480.446 152.283C480.181 152.553 479.828 152.782 479.388 152.972C478.947 153.161 478.41 153.256 477.776 153.256ZM478.031 151.75C478.694 151.75 479.253 151.62 479.707 151.359C480.167 151.099 480.512 150.763 480.744 150.351C480.981 149.939 481.099 149.506 481.099 149.051V147.517C481.028 147.602 480.872 147.68 480.631 147.751C480.394 147.818 480.119 147.877 479.807 147.929C479.499 147.976 479.198 148.019 478.905 148.057C478.616 148.09 478.382 148.118 478.202 148.142C477.766 148.199 477.359 148.291 476.98 148.419C476.606 148.542 476.303 148.729 476.071 148.98C475.844 149.226 475.73 149.562 475.73 149.989C475.73 150.571 475.946 151.011 476.376 151.31C476.812 151.603 477.364 151.75 478.031 151.75ZM487.511 138.455V153H485.835V138.455H487.511ZM500.95 142.091V143.511H495.297V142.091H500.95ZM496.945 139.477H498.621V149.875C498.621 150.348 498.689 150.704 498.827 150.94C498.969 151.172 499.149 151.329 499.366 151.409C499.589 151.485 499.823 151.523 500.07 151.523C500.254 151.523 500.406 151.513 500.524 151.494C500.643 151.471 500.737 151.452 500.808 151.438L501.149 152.943C501.036 152.986 500.877 153.028 500.673 153.071C500.47 153.118 500.212 153.142 499.899 153.142C499.426 153.142 498.962 153.04 498.507 152.837C498.057 152.633 497.683 152.323 497.385 151.906C497.091 151.49 496.945 150.964 496.945 150.33V139.477ZM507.786 153.227C506.801 153.227 505.937 152.993 505.194 152.524C504.455 152.055 503.878 151.4 503.461 150.557C503.049 149.714 502.843 148.729 502.843 147.602C502.843 146.466 503.049 145.474 503.461 144.626C503.878 143.779 504.455 143.121 505.194 142.652C505.937 142.183 506.801 141.949 507.786 141.949C508.771 141.949 509.633 142.183 510.371 142.652C511.115 143.121 511.692 143.779 512.104 144.626C512.521 145.474 512.729 146.466 512.729 147.602C512.729 148.729 512.521 149.714 512.104 150.557C511.692 151.4 511.115 152.055 510.371 152.524C509.633 152.993 508.771 153.227 507.786 153.227ZM507.786 151.722C508.534 151.722 509.15 151.53 509.633 151.146C510.116 150.763 510.473 150.259 510.705 149.634C510.937 149.009 511.053 148.331 511.053 147.602C511.053 146.873 510.937 146.194 510.705 145.564C510.473 144.934 510.116 144.425 509.633 144.037C509.15 143.649 508.534 143.455 507.786 143.455C507.038 143.455 506.423 143.649 505.94 144.037C505.457 144.425 505.099 144.934 504.867 145.564C504.635 146.194 504.519 146.873 504.519 147.602C504.519 148.331 504.635 149.009 504.867 149.634C505.099 150.259 505.457 150.763 505.94 151.146C506.423 151.53 507.038 151.722 507.786 151.722ZM522.454 157.091C522.071 157.091 521.711 157.06 521.375 156.999C521.043 156.942 520.769 156.868 520.551 156.778L521.233 154.52C521.588 154.629 521.907 154.688 522.191 154.697C522.48 154.707 522.729 154.641 522.937 154.499C523.15 154.357 523.323 154.115 523.456 153.774L523.633 153.312L519.72 142.091H522.902L525.16 150.102H525.274L527.554 142.091H530.757L526.517 154.179C526.313 154.766 526.036 155.277 525.686 155.713C525.34 156.153 524.902 156.492 524.372 156.729C523.842 156.97 523.202 157.091 522.454 157.091Z" fill="#FF0000"/>
<path d="M168.407 12.4545L171.341 17.4119H171.454L174.402 12.4545H177.875L173.436 19.7273L177.974 27H174.437L171.454 22.0355H171.341L168.358 27H164.835L169.388 19.7273L164.92 12.4545H168.407ZM185.112 27.1989C184.051 27.1989 183.107 27.0166 182.278 26.652C181.454 26.2827 180.803 25.776 180.325 25.1321C179.852 24.4834 179.608 23.7353 179.594 22.8878H182.69C182.709 23.2429 182.825 23.5554 183.038 23.8253C183.256 24.0904 183.545 24.2964 183.905 24.4432C184.265 24.59 184.669 24.6634 185.119 24.6634C185.588 24.6634 186.002 24.5805 186.362 24.4148C186.722 24.2491 187.004 24.0194 187.207 23.7259C187.411 23.4323 187.513 23.0937 187.513 22.7102C187.513 22.322 187.404 21.9787 187.186 21.6804C186.973 21.3774 186.665 21.1406 186.263 20.9702C185.865 20.7997 185.391 20.7145 184.842 20.7145H183.486V18.456H184.842C185.306 18.456 185.716 18.3755 186.071 18.2145C186.431 18.0535 186.71 17.831 186.909 17.5469C187.108 17.258 187.207 16.9219 187.207 16.5384C187.207 16.1738 187.12 15.8542 186.944 15.5795C186.774 15.3002 186.532 15.0824 186.22 14.9261C185.912 14.7699 185.552 14.6918 185.14 14.6918C184.724 14.6918 184.343 14.7675 183.997 14.919C183.651 15.0658 183.374 15.2765 183.166 15.5511C182.958 15.8258 182.846 16.1477 182.832 16.517H179.885C179.899 15.679 180.138 14.9403 180.602 14.3011C181.066 13.6619 181.691 13.1624 182.477 12.8026C183.268 12.438 184.16 12.2557 185.155 12.2557C186.158 12.2557 187.037 12.438 187.79 12.8026C188.542 13.1671 189.127 13.6596 189.544 14.2798C189.965 14.8954 190.174 15.5866 190.169 16.3537C190.174 17.1681 189.92 17.8475 189.409 18.392C188.902 18.9366 188.242 19.2822 187.427 19.429V19.5426C188.497 19.6799 189.312 20.0516 189.871 20.6577C190.434 21.259 190.713 22.0118 190.709 22.9162C190.713 23.7448 190.474 24.4811 189.991 25.125C189.513 25.7689 188.853 26.2756 188.01 26.6449C187.167 27.0142 186.201 27.1989 185.112 27.1989Z" fill="black"/>
</svg>
